# xmcd CD database file generated by Grip 3.2.0
# 
# Track frame offsets:
#       182
#       5982
#       16555
#       57867
#       62310
#       72062
#       82725
#       98097
#       115627
#       137355
#       147282
#       170472
#       188670
#       213440
#       226780
#       237087
# 
# Disc length: 3513 seconds
# 
# Revision: 3
# Processed by: cddbd v1.5.2PL0 Copyright (c) Steve Scherf et al.
# Submitted via: Grip 3.2.0
# 
DISCID=ba0db710
DTITLE=James Brown - His Greatest Performance! Live!
DYEAR=1990
DGENRE=Funk
TTITLE0=Hot Pants
TTITLE1=I Got The Feeling
TTITLE2=It's A Man's Man's World
TTITLE3=Cold Sweat
TTITLE4=I Can't Stand It
TTITLE5=Papa's Got A Brand New Bag
TTITLE6=I Feel Good (I Got You)
TTITLE7=Please, Please, Please
TTITLE8=Jam (1980)
TTITLE9=(Give It Up) Turn It Loose
TTITLE10=It's Too Funky In Here
TTITLE11=Gonna Have A Funky Good Time
TTITLE12=Try Me
TTITLE13=Get On The Good Foot
TTITLE14=Get Up Offa That Thing
TTITLE15=Geogia On My Mind
EXTD=YEAR: 1990
EXTT0=
EXTT1=
EXTT2=
EXTT3=
EXTT4=
EXTT5=
EXTT6=
EXTT7=
EXTT8=
EXTT9=
EXTT10=
EXTT11=
EXTT12=
EXTT13=
EXTT14=
EXTT15=
PLAYORDER=
